<svg xmlns="http://www.w3.org/2000/svg" viewBox="0 0 2205.98 806.17"><defs><style>.cls-1,.cls-2{stroke:#000;stroke-miterlimit:10;stroke-width:6px;}.cls-2{fill:none;}</style></defs><title>Asset 1_svg</title><g id="Layer_2" data-name="Layer 2"><g id="Layer_1-2" data-name="Layer 1"><line class="cls-1" x1="1003" y1="102.16" x2="1003" y2="502.58"/><line class="cls-1" x1="1203" y1="302.79" x2="1203" y2="703.21"/><line class="cls-1" x1="1000" y1="203" y2="203"/><line class="cls-1" x1="1303" y1="403" x2="903" y2="403"/><line class="cls-1" x1="2205.98" y1="603.17" x2="1205.98" y2="603.17"/><path class="cls-2" d="M1203,103a100,100,0,0,0-200,0h0V203h100A100,100,0,0,0,1203,103Z"/><path class="cls-2" d="M1403,303a100,100,0,0,0-200,0h0V403h100A100,100,0,0,0,1403,303Z"/><path class="cls-2" d="M803,503.08a100,100,0,1,0,200,0h0v-100H903A100,100,0,0,0,803,503.08Z"/><path class="cls-2" d="M1003,703.17a100,100,0,1,0,200,0h0v-100H1103A100,100,0,0,0,1003,703.17Z"/></g></g></svg>