<?xml version="1.0"?>
<svg xmlns="http://www.w3.org/2000/svg" viewBox="0 0 16 16">
    <path style="line-height:normal;text-indent:0;text-align:start;text-decoration-line:none;text-decoration-style:solid;text-decoration-color:#000;text-transform:none;block-progression:tb;isolation:auto;mix-blend-mode:normal" d="M 4.7714844 1 C 2.694239 1 1 2.6953416 1 4.7734375 L 1 10.228516 C 1 12.305761 2.6953416 14 4.7734375 14 L 10.228516 14 C 12.305761 14 14 12.304659 14 10.226562 L 14 4.7714844 C 14 2.694239 12.304659 1 10.226562 1 L 4.7714844 1 z M 4.7714844 2 L 10.226562 2 C 11.764467 2 13 3.2347297 13 4.7714844 L 13 10.226562 C 13 11.764467 11.76527 13 10.228516 13 L 4.7734375 13 C 3.2355334 13 2 11.76527 2 10.228516 L 2 4.7734375 C 2 3.2355334 3.2347297 2 4.7714844 2 z M 11.5 3 A 0.5 0.5 0 0 0 11 3.5 A 0.5 0.5 0 0 0 11.5 4 A 0.5 0.5 0 0 0 12 3.5 A 0.5 0.5 0 0 0 11.5 3 z M 7.5 4 C 5.5729257 4 4 5.5729257 4 7.5 C 4 9.4270743 5.5729257 11 7.5 11 C 9.4270743 11 11 9.4270743 11 7.5 C 11 5.5729257 9.4270743 4 7.5 4 z M 7.5 5 C 8.8866342 5 10 6.1133658 10 7.5 C 10 8.8866342 8.8866342 10 7.5 10 C 6.1133658 10 5 8.8866342 5 7.5 C 5 6.1133658 6.1133658 5 7.5 5 z" font-weight="400" font-family="sans-serif" white-space="normal" overflow="visible"/>
</svg>
