<?xml version="1.0"?>
<svg xmlns="http://www.w3.org/2000/svg" viewBox="0 0 16 16">
    <path style="line-height:normal;text-indent:0;text-align:start;text-decoration-line:none;text-decoration-style:solid;text-decoration-color:#000;text-transform:none;block-progression:tb;isolation:auto;mix-blend-mode:normal" d="M 2.7558594 1 C 1.7924069 1 1 1.7924069 1 2.7558594 L 1 12.244141 C 1 13.208073 1.7930181 14 2.7558594 14 L 12.244141 14 C 13.207593 14 14.000564 13.208545 14.001953 12.246094 L 14.001953 2.7558594 C 14.001953 1.7919266 13.208935 1 12.246094 1 L 2.7558594 1 z M 2.7558594 2 L 12.246094 2 C 12.669252 2 13.001953 2.3317921 13.001953 2.7558594 L 13.001953 12.246094 C 13.001342 12.669643 12.668688 13 12.244141 13 L 2.7558594 13 C 2.3327006 13 2 12.668208 2 12.244141 L 2 2.7558594 C 2 2.3313118 2.3313118 2 2.7558594 2 z M 4 3 A 1 1 0 0 0 3 4 A 1 1 0 0 0 4 5 A 1 1 0 0 0 5 4 A 1 1 0 0 0 4 3 z M 3 6 L 3 12 L 5 12 L 5 6 L 3 6 z M 6 6 L 6 12 L 8 12 L 8 9.3203125 C 8 8.4883125 8.077125 7.7441406 9.078125 7.7441406 C 10.064125 7.7441406 10 8.635 10 9.375 L 10 12 L 12 12 L 12 9.0371094 C 12 7.3201094 11.639406 6 9.6914062 6 C 8.7554063 6 8.2823906 6.374 8.0253906 6.875 L 8 6.875 L 8 6 L 6 6 z" font-weight="400" font-family="sans-serif" white-space="normal" overflow="visible"/>
</svg>
