<svg height="512pt" viewBox="-64 0 512 512" width="512pt" xmlns="http://www.w3.org/2000/svg"><path d="m190.664062 207.800781v-16.082031c0-21.03125-10.335937-39.683594-26.195312-51.175781 6.335938-8.027344 10.132812-18.144531 10.132812-29.140625 0-25.992188-21.144531-47.136719-47.132812-47.136719-25.992188 0-47.136719 21.144531-47.136719 47.132813 0 10.996093 3.796875 21.113281 10.128907 29.140624-15.855469 11.492188-26.195313 30.144532-26.195313 51.179688v16.082031c0 8.285157 6.714844 15 15 15h96.398437c8.285157 0 15-6.714843 15-15zm-63.199218-113.535156c9.449218 0 17.132812 7.6875 17.132812 17.136719 0 9.445312-7.683594 17.132812-17.132812 17.132812-9.445313 0-17.132813-7.6875-17.132813-17.136718 0-9.445313 7.6875-17.132813 17.132813-17.132813zm33.199218 98.535156h-66.398437v-1.082031c0-18.300781 14.886719-33.1875 33.214844-33.1875 18.296875 0 33.183593 14.886719 33.183593 33.1875zm0 0"/><path d="m304.199219 257.066406h-112.464844c-8.285156 0-15 6.714844-15 15s6.714844 15 15 15h112.464844c8.285156 0 15-6.714844 15-15s-6.714844-15-15-15zm0 0"/><path d="m127.464844 257.066406h-48.199219c-8.285156 0-15 6.714844-15 15s6.714844 15 15 15h48.199219c8.285156 0 15-6.714844 15-15s-6.714844-15-15-15zm0 0"/><path d="m304.199219 321.332031h-112.464844c-8.285156 0-15 6.71875-15 15 0 8.285157 6.714844 15 15 15h112.464844c8.285156 0 15-6.714843 15-15 0-8.28125-6.714844-15-15-15zm0 0"/><path d="m127.464844 321.332031h-48.199219c-8.285156 0-15 6.71875-15 15 0 8.285157 6.714844 15 15 15h48.199219c8.285156 0 15-6.714843 15-15 0-8.28125-6.714844-15-15-15zm0 0"/><path d="m304.199219 385.601562h-112.464844c-8.285156 0-15 6.714844-15 15 0 8.28125 6.714844 15 15 15h112.464844c8.285156 0 15-6.71875 15-15 0-8.285156-6.714844-15-15-15zm0 0"/><path d="m127.464844 385.601562h-48.199219c-8.285156 0-15 6.714844-15 15 0 8.28125 6.714844 15 15 15h48.199219c8.285156 0 15-6.71875 15-15 0-8.285156-6.714844-15-15-15zm0 0"/><path d="m379.074219 84.726562-80.335938-80.332031c-2.8125-2.816406-6.625-4.394531-10.605469-4.394531h-241c-25.800781 0-47.132812 20.847656-47.132812 47.132812v417.734376c0 25.804687 20.855469 47.132812 47.132812 47.132812h289.199219c25.800781 0 47.136719-20.847656 47.136719-47.132812v-369.535157c-.003906-3.976562-1.582031-7.792969-4.394531-10.605469zm-30.753907 11.671876h-61.253906v-61.253907zm-11.988281 385.601562h-289.199219c-9.441406 0-17.132812-7.636719-17.132812-17.132812v-417.734376c0-9.457031 7.65625-17.132812 17.132812-17.132812h209.933594v81.398438c0 8.285156 6.714844 15 15 15h81.398438v338.46875c0 9.457031-7.65625 17.132812-17.132813 17.132812zm0 0"/></svg>